<svg xmlns="http://www.w3.org/2000/svg" xmlns:xlink="http://www.w3.org/1999/xlink" width="500" zoomAndPan="magnify" viewBox="0 0 375 374.999991" height="500" preserveAspectRatio="xMidYMid meet" version="1.0"><defs><g/><clipPath id="3a6c029264"><path d="M 104.605469 99.53125 L 270.355469 99.53125 L 270.355469 265.28125 L 104.605469 265.28125 Z M 104.605469 99.53125 " clip-rule="nonzero"/></clipPath><clipPath id="64e45b6c69"><path d="M 187.496094 99.53125 C 141.714844 99.53125 104.605469 136.644531 104.605469 182.425781 C 104.605469 228.207031 141.714844 265.316406 187.496094 265.316406 C 233.277344 265.316406 270.390625 228.207031 270.390625 182.425781 C 270.390625 136.644531 233.277344 99.53125 187.496094 99.53125 Z M 187.496094 99.53125 " clip-rule="nonzero"/></clipPath><clipPath id="7cab556c9f"><path d="M 133.585938 128.515625 L 241.410156 128.515625 L 241.410156 236.339844 L 133.585938 236.339844 Z M 133.585938 128.515625 " clip-rule="nonzero"/></clipPath><clipPath id="101c16ee02"><path d="M 187.5 128.515625 C 157.722656 128.515625 133.585938 152.652344 133.585938 182.425781 C 133.585938 212.203125 157.722656 236.339844 187.5 236.339844 C 217.273438 236.339844 241.410156 212.203125 241.410156 182.425781 C 241.410156 152.652344 217.273438 128.515625 187.5 128.515625 Z M 187.5 128.515625 " clip-rule="nonzero"/></clipPath><clipPath id="458377cda1"><path d="M 37 124 L 337 124 L 337 234 L 37 234 Z M 37 124 " clip-rule="nonzero"/></clipPath><clipPath id="65824dd088"><path d="M 37.5 167.871094 L 326.859375 124.109375 L 336.835938 190.058594 L 47.472656 233.820312 Z M 37.5 167.871094 " clip-rule="nonzero"/></clipPath><clipPath id="901bcdbd18"><path d="M 0.441406 0.078125 L 299.960938 0.078125 L 299.960938 110 L 0.441406 110 Z M 0.441406 0.078125 " clip-rule="nonzero"/></clipPath><clipPath id="583d9830f3"><path d="M 0.5 43.871094 L 289.859375 0.109375 L 299.835938 66.058594 L 10.472656 109.820312 Z M 0.5 43.871094 " clip-rule="nonzero"/></clipPath><clipPath id="59373db5c8"><rect x="0" width="300" y="0" height="110"/></clipPath><clipPath id="bb8f41422e"><rect x="0" width="87" y="0" height="41"/></clipPath></defs><g clip-path="url(#3a6c029264)"><g clip-path="url(#64e45b6c69)"><path stroke-linecap="butt" transform="matrix(0.75, 0, 0, 0.75, 104.604168, 99.532589)" fill="none" stroke-linejoin="miter" d="M 110.522575 -0.00178595 C 49.480904 -0.00178595 0.00173429 49.482592 0.00173429 110.524263 C 0.00173429 171.565934 49.480904 221.045104 110.522575 221.045104 C 171.564246 221.045104 221.048624 171.565934 221.048624 110.524263 C 221.048624 49.482592 171.564246 -0.00178595 110.522575 -0.00178595 Z M 110.522575 -0.00178595 " stroke="#333333" stroke-width="6" stroke-opacity="1" stroke-miterlimit="4"/></g></g><g clip-path="url(#7cab556c9f)"><g clip-path="url(#101c16ee02)"><path stroke-linecap="butt" transform="matrix(0.75, 0, 0, 0.75, 133.586084, 128.514512)" fill="none" stroke-linejoin="miter" d="M 71.885226 0.00148352 C 32.182099 0.00148352 -0.00019497 32.183777 -0.00019497 71.881697 C -0.00019497 111.584824 32.182099 143.767118 71.885226 143.767118 C 111.583146 143.767118 143.765439 111.584824 143.765439 71.881697 C 143.765439 32.183777 111.583146 0.00148352 71.885226 0.00148352 Z M 71.885226 0.00148352 " stroke="#333333" stroke-width="6" stroke-opacity="1" stroke-miterlimit="4"/></g></g><g clip-path="url(#458377cda1)"><g clip-path="url(#65824dd088)"><g transform="matrix(1, 0, 0, 1, 37, 124)"><g clip-path="url(#59373db5c8)"><g clip-path="url(#901bcdbd18)"><g clip-path="url(#583d9830f3)"><path fill="#ffffff" d="M 0.5 43.871094 L 289.796875 0.121094 L 299.769531 66.066406 L 10.472656 109.820312 Z M 0.5 43.871094 " fill-opacity="1" fill-rule="nonzero"/></g></g></g></g></g></g><g fill="#e06c4f" fill-opacity="1"><g transform="translate(61.680563, 210.675094)"><g><path d="M 73.03125 -41.578125 C 73.113281 -41.054688 72.914062 -40.253906 72.4375 -39.171875 C 71.96875 -38.097656 71.3125 -36.8125 70.46875 -35.3125 C 69.632812 -33.820312 68.671875 -32.175781 67.578125 -30.375 C 66.484375 -28.570312 65.375 -26.695312 64.25 -24.75 C 63.019531 -22.664062 61.828125 -20.582031 60.671875 -18.5 C 59.523438 -16.425781 58.492188 -14.460938 57.578125 -12.609375 C 56.660156 -10.753906 55.953125 -9.082031 55.453125 -7.59375 C 54.960938 -6.113281 54.785156 -4.941406 54.921875 -4.078125 C 54.972656 -3.722656 55.125 -3.46875 55.375 -3.3125 C 55.625 -3.15625 55.875 -3.097656 56.125 -3.140625 C 56.382812 -3.171875 56.601562 -3.304688 56.78125 -3.546875 C 56.90625 -3.710938 56.988281 -3.707031 57.03125 -3.53125 C 57.070312 -3.363281 57.023438 -3.109375 56.890625 -2.765625 C 56.765625 -2.421875 56.539062 -2.085938 56.21875 -1.765625 C 55.90625 -1.453125 55.445312 -1.253906 54.84375 -1.171875 C 53.957031 -1.035156 53.300781 -1.21875 52.875 -1.71875 C 52.445312 -2.21875 52.191406 -2.738281 52.109375 -3.28125 C 51.972656 -4.15625 52.109375 -5.300781 52.515625 -6.71875 C 52.921875 -8.144531 53.503906 -9.71875 54.265625 -11.4375 C 55.035156 -13.164062 55.878906 -14.925781 56.796875 -16.71875 C 57.722656 -18.519531 58.660156 -20.25 59.609375 -21.90625 C 60.566406 -23.5625 61.425781 -25.015625 62.1875 -26.265625 C 63.707031 -28.753906 65.09375 -31.015625 66.34375 -33.046875 C 67.59375 -35.078125 68.582031 -36.773438 69.3125 -38.140625 C 70.039062 -39.515625 70.367188 -40.429688 70.296875 -40.890625 C 70.265625 -41.128906 70.1875 -41.273438 70.0625 -41.328125 C 69.945312 -41.390625 69.832031 -41.410156 69.71875 -41.390625 C 69.050781 -41.285156 67.628906 -40.382812 65.453125 -38.6875 C 63.273438 -37 60.507812 -34.507812 57.15625 -31.21875 C 53.800781 -27.9375 50.019531 -23.84375 45.8125 -18.9375 C 44.25 -17.113281 42.691406 -15.179688 41.140625 -13.140625 C 39.597656 -11.097656 38.148438 -9.09375 36.796875 -7.125 C 35.441406 -5.15625 34.222656 -3.351562 33.140625 -1.71875 C 32.054688 -0.0820312 31.1875 1.25 30.53125 2.28125 C 29.875 3.320312 29.484375 3.925781 29.359375 4.09375 C 29.242188 4.257812 28.992188 4.375 28.609375 4.4375 C 28.234375 4.488281 27.835938 4.445312 27.421875 4.3125 C 27.003906 4.175781 26.773438 3.960938 26.734375 3.671875 C 26.691406 3.441406 26.757812 3.210938 26.9375 2.984375 C 27.082031 2.785156 27.460938 2.125 28.078125 1 C 28.703125 -0.113281 29.476562 -1.507812 30.40625 -3.1875 C 31.34375 -4.863281 32.34375 -6.695312 33.40625 -8.6875 C 34.46875 -10.675781 35.535156 -12.671875 36.609375 -14.671875 C 37.679688 -16.679688 38.671875 -18.539062 39.578125 -20.25 C 40.484375 -21.957031 41.234375 -23.398438 41.828125 -24.578125 C 42.421875 -25.753906 42.773438 -26.476562 42.890625 -26.75 C 43.347656 -27.65625 43.96875 -28.789062 44.75 -30.15625 C 45.539062 -31.53125 46.378906 -32.988281 47.265625 -34.53125 C 48.160156 -36.070312 48.992188 -37.566406 49.765625 -39.015625 C 50.546875 -40.472656 51.164062 -41.738281 51.625 -42.8125 C 52.082031 -43.894531 52.28125 -44.648438 52.21875 -45.078125 C 52.15625 -45.492188 51.890625 -45.664062 51.421875 -45.59375 C 50.460938 -45.445312 49.242188 -44.867188 47.765625 -43.859375 C 46.285156 -42.859375 44.671875 -41.582031 42.921875 -40.03125 C 41.171875 -38.476562 39.375 -36.785156 37.53125 -34.953125 C 35.6875 -33.128906 33.898438 -31.289062 32.171875 -29.4375 C 30.867188 -27.289062 29.457031 -24.941406 27.9375 -22.390625 C 26.425781 -19.847656 24.847656 -17.242188 23.203125 -14.578125 C 21.554688 -11.910156 19.921875 -9.28125 18.296875 -6.6875 C 16.671875 -4.101562 15.101562 -1.664062 13.59375 0.625 C 12.09375 2.914062 10.707031 4.941406 9.4375 6.703125 C 8.164062 8.472656 7.078125 9.878906 6.171875 10.921875 C 5.273438 11.960938 4.617188 12.515625 4.203125 12.578125 C 3.566406 12.671875 3 12.539062 2.5 12.1875 C 2.007812 11.832031 1.726562 11.410156 1.65625 10.921875 C 1.519531 9.992188 1.769531 8.71875 2.40625 7.09375 C 3.050781 5.46875 4.007812 3.578125 5.28125 1.421875 C 6.5625 -0.722656 8.082031 -3.054688 9.84375 -5.578125 C 11.613281 -8.109375 13.546875 -10.722656 15.640625 -13.421875 C 17.742188 -16.117188 19.941406 -18.816406 22.234375 -21.515625 C 24.523438 -24.210938 26.828125 -26.820312 29.140625 -29.34375 C 30.390625 -31.4375 31.5 -33.304688 32.46875 -34.953125 C 33.4375 -36.597656 34.207031 -37.910156 34.78125 -38.890625 C 35.363281 -39.867188 35.664062 -40.382812 35.6875 -40.4375 C 35.75 -40.601562 35.945312 -40.757812 36.28125 -40.90625 C 36.613281 -41.0625 36.972656 -41.164062 37.359375 -41.21875 C 37.640625 -41.269531 37.894531 -41.269531 38.125 -41.21875 C 38.363281 -41.164062 38.5 -41.023438 38.53125 -40.796875 C 38.570312 -40.523438 38.460938 -40.164062 38.203125 -39.71875 C 38.109375 -39.59375 37.9375 -39.304688 37.6875 -38.859375 C 37.445312 -38.421875 37.128906 -37.851562 36.734375 -37.15625 C 38.847656 -39.226562 40.84375 -41.050781 42.71875 -42.625 C 44.59375 -44.207031 46.304688 -45.476562 47.859375 -46.4375 C 49.410156 -47.40625 50.695312 -47.96875 51.71875 -48.125 C 52.644531 -48.257812 53.351562 -48.203125 53.84375 -47.953125 C 54.34375 -47.710938 54.703125 -47.382812 54.921875 -46.96875 C 55.140625 -46.5625 55.28125 -46.179688 55.34375 -45.828125 C 55.414062 -45.316406 55.125 -44.296875 54.46875 -42.765625 C 53.8125 -41.234375 52.910156 -39.394531 51.765625 -37.25 C 50.628906 -35.113281 49.398438 -32.828125 48.078125 -30.390625 C 46.367188 -27.253906 44.828125 -24.460938 43.453125 -22.015625 C 42.078125 -19.566406 40.765625 -17.195312 39.515625 -14.90625 C 41.742188 -17.4375 44.007812 -20.023438 46.3125 -22.671875 C 48.613281 -25.316406 50.882812 -27.863281 53.125 -30.3125 C 55.363281 -32.757812 57.523438 -34.972656 59.609375 -36.953125 C 61.703125 -38.929688 63.644531 -40.546875 65.4375 -41.796875 C 67.226562 -43.046875 68.804688 -43.773438 70.171875 -43.984375 C 70.921875 -44.097656 71.488281 -44.019531 71.875 -43.75 C 72.257812 -43.488281 72.535156 -43.148438 72.703125 -42.734375 C 72.867188 -42.316406 72.976562 -41.929688 73.03125 -41.578125 Z M 5.640625 7.546875 C 6.035156 7.191406 6.660156 6.421875 7.515625 5.234375 C 8.378906 4.054688 9.394531 2.578125 10.5625 0.796875 C 11.726562 -0.984375 13.003906 -2.976562 14.390625 -5.1875 C 15.773438 -7.40625 17.210938 -9.71875 18.703125 -12.125 C 20.191406 -14.53125 21.65625 -16.9375 23.09375 -19.34375 C 21.820312 -17.757812 20.445312 -15.988281 18.96875 -14.03125 C 17.488281 -12.070312 16.015625 -10.050781 14.546875 -7.96875 C 13.085938 -5.894531 11.707031 -3.898438 10.40625 -1.984375 C 9.113281 -0.0664062 8.007812 1.640625 7.09375 3.140625 C 6.175781 4.640625 5.535156 5.816406 5.171875 6.671875 C 4.816406 7.535156 4.820312 7.925781 5.1875 7.84375 C 5.3125 7.820312 5.460938 7.722656 5.640625 7.546875 Z M 5.640625 7.546875 "/></g></g></g><g fill="#e06c4f" fill-opacity="1"><g transform="translate(126.703557, 200.802082)"><g><path d="M 19.078125 -17.359375 C 19.484375 -17.628906 19.65625 -17.578125 19.59375 -17.203125 C 19.53125 -16.835938 19.078125 -16.316406 18.234375 -15.640625 C 17.378906 -14.960938 16.414062 -14.410156 15.34375 -13.984375 C 14.269531 -13.554688 13.253906 -13.285156 12.296875 -13.171875 C 12.054688 -13.128906 11.820312 -13.113281 11.59375 -13.125 C 11.363281 -13.144531 11.140625 -13.15625 10.921875 -13.15625 C 10.640625 -12.414062 10.175781 -11.425781 9.53125 -10.1875 C 8.882812 -8.945312 8.128906 -7.617188 7.265625 -6.203125 C 6.398438 -4.785156 5.507812 -3.429688 4.59375 -2.140625 C 3.6875 -0.859375 2.8125 0.191406 1.96875 1.015625 C 1.125 1.835938 0.40625 2.273438 -0.1875 2.328125 C -0.5 2.359375 -0.921875 2.21875 -1.453125 1.90625 C -1.992188 1.601562 -2.304688 1.085938 -2.390625 0.359375 C -2.429688 0.0664062 -2.285156 -0.5 -1.953125 -1.34375 C -1.628906 -2.195312 -1.179688 -3.226562 -0.609375 -4.4375 C -0.0351562 -5.65625 0.617188 -6.953125 1.359375 -8.328125 C 2.097656 -9.703125 2.863281 -11.0625 3.65625 -12.40625 C 4.445312 -13.757812 5.222656 -14.988281 5.984375 -16.09375 C 6.742188 -17.207031 7.441406 -18.117188 8.078125 -18.828125 C 8.710938 -19.535156 9.222656 -19.914062 9.609375 -19.96875 C 10.035156 -20.03125 10.414062 -19.945312 10.75 -19.71875 C 11.082031 -19.488281 11.300781 -19.238281 11.40625 -18.96875 C 11.507812 -18.707031 11.410156 -18.550781 11.109375 -18.5 C 10.910156 -18.46875 10.703125 -18.382812 10.484375 -18.25 C 10.273438 -18.125 10.050781 -17.953125 9.8125 -17.734375 C 10.269531 -17.535156 10.597656 -17.179688 10.796875 -16.671875 C 11.003906 -16.171875 11.125 -15.613281 11.15625 -15 C 11.363281 -15 11.578125 -14.992188 11.796875 -14.984375 C 12.023438 -14.984375 12.253906 -15 12.484375 -15.03125 C 13.097656 -15.125 13.847656 -15.300781 14.734375 -15.5625 C 15.617188 -15.820312 16.460938 -16.117188 17.265625 -16.453125 C 18.078125 -16.785156 18.679688 -17.085938 19.078125 -17.359375 Z M 0.671875 -1.390625 C 0.835938 -1.273438 1.160156 -1.441406 1.640625 -1.890625 C 2.128906 -2.347656 2.675781 -3 3.28125 -3.84375 C 3.882812 -4.695312 4.507812 -5.632812 5.15625 -6.65625 C 5.8125 -7.675781 6.410156 -8.679688 6.953125 -9.671875 C 7.503906 -10.660156 7.941406 -11.535156 8.265625 -12.296875 C 8.597656 -13.054688 8.738281 -13.597656 8.6875 -13.921875 L 8.65625 -14.1875 C 8.351562 -14.457031 8.070312 -14.765625 7.8125 -15.109375 C 7.445312 -14.535156 6.941406 -13.722656 6.296875 -12.671875 C 5.660156 -11.617188 4.984375 -10.472656 4.265625 -9.234375 C 3.554688 -7.992188 2.894531 -6.800781 2.28125 -5.65625 C 1.664062 -4.519531 1.203125 -3.554688 0.890625 -2.765625 C 0.585938 -1.972656 0.515625 -1.515625 0.671875 -1.390625 Z M 0.671875 -1.390625 "/></g></g></g><g fill="#e06c4f" fill-opacity="1"><g transform="translate(139.360204, 198.880313)"><g><path d="M 10.671875 -18.796875 C 10.984375 -18.878906 11.398438 -18.957031 11.921875 -19.03125 C 12.441406 -19.113281 12.925781 -19.148438 13.375 -19.140625 C 13.820312 -19.140625 14.085938 -19 14.171875 -18.71875 C 14.285156 -18.28125 14.273438 -17.875 14.140625 -17.5 C 14.003906 -17.125 13.816406 -16.929688 13.578125 -16.921875 C 13.203125 -16.953125 12.488281 -16.925781 11.4375 -16.84375 C 10.394531 -16.757812 9.375 -16.582031 8.375 -16.3125 C 7.34375 -14.5625 6.359375 -12.800781 5.421875 -11.03125 C 4.484375 -9.269531 3.671875 -7.644531 2.984375 -6.15625 C 2.304688 -4.675781 1.8125 -3.453125 1.5 -2.484375 C 1.195312 -1.515625 1.160156 -0.953125 1.390625 -0.796875 C 1.535156 -0.671875 1.878906 -0.84375 2.421875 -1.3125 C 2.972656 -1.78125 3.628906 -2.398438 4.390625 -3.171875 C 5.148438 -3.941406 5.914062 -4.75 6.6875 -5.59375 C 7.46875 -6.4375 8.164062 -7.195312 8.78125 -7.875 C 9.40625 -8.5625 9.847656 -9.023438 10.109375 -9.265625 C 10.390625 -9.554688 10.441406 -9.457031 10.265625 -8.96875 C 10.085938 -8.476562 9.65625 -7.707031 8.96875 -6.65625 C 8.757812 -6.351562 8.429688 -5.890625 7.984375 -5.265625 C 7.535156 -4.640625 7.003906 -3.9375 6.390625 -3.15625 C 5.785156 -2.375 5.15625 -1.613281 4.5 -0.875 C 3.84375 -0.144531 3.203125 0.46875 2.578125 0.96875 C 1.953125 1.46875 1.394531 1.753906 0.90625 1.828125 C 0.4375 1.898438 -0.0351562 1.710938 -0.515625 1.265625 C -0.992188 0.816406 -1.273438 0.316406 -1.359375 -0.234375 C -1.441406 -0.785156 -1.191406 -1.8125 -0.609375 -3.3125 C -0.0234375 -4.8125 0.800781 -6.613281 1.875 -8.71875 C 2.945312 -10.820312 4.160156 -13.085938 5.515625 -15.515625 C 5.234375 -15.453125 4.992188 -15.390625 4.796875 -15.328125 C 4.597656 -15.273438 4.394531 -15.21875 4.1875 -15.15625 C 3.800781 -15.0625 3.398438 -15.128906 2.984375 -15.359375 C 2.578125 -15.597656 2.328125 -15.882812 2.234375 -16.21875 C 2.140625 -16.5625 2.300781 -16.8125 2.71875 -16.96875 C 3.3125 -17.207031 3.957031 -17.410156 4.65625 -17.578125 C 5.351562 -17.742188 6.117188 -17.90625 6.953125 -18.0625 L 7.359375 -18.734375 C 8.035156 -19.910156 8.789062 -21.21875 9.625 -22.65625 C 10.457031 -24.101562 11.3125 -25.503906 12.1875 -26.859375 C 13.0625 -28.210938 13.910156 -29.359375 14.734375 -30.296875 C 15.554688 -31.234375 16.28125 -31.796875 16.90625 -31.984375 C 17.300781 -32.109375 17.59375 -32.035156 17.78125 -31.765625 C 17.976562 -31.492188 18.09375 -31.273438 18.125 -31.109375 C 18.164062 -30.816406 17.910156 -30.203125 17.359375 -29.265625 C 16.816406 -28.335938 16.113281 -27.242188 15.25 -25.984375 C 14.382812 -24.722656 13.476562 -23.441406 12.53125 -22.140625 C 11.59375 -20.847656 10.726562 -19.679688 9.9375 -18.640625 C 10.082031 -18.660156 10.210938 -18.6875 10.328125 -18.71875 C 10.441406 -18.757812 10.554688 -18.785156 10.671875 -18.796875 Z M 10.671875 -18.796875 "/></g></g></g><g fill="#e06c4f" fill-opacity="1"><g transform="translate(151.059991, 197.103831)"><g><path d="M -0.5 2.84375 C -0.820312 2.894531 -1.144531 2.800781 -1.46875 2.5625 C -1.800781 2.332031 -2.066406 2.050781 -2.265625 1.71875 C -2.472656 1.394531 -2.539062 1.144531 -2.46875 0.96875 C -1.738281 -0.988281 -0.910156 -2.925781 0.015625 -4.84375 C 0.941406 -6.769531 1.863281 -8.582031 2.78125 -10.28125 C 3.695312 -11.976562 4.519531 -13.453125 5.25 -14.703125 C 5.976562 -15.953125 6.519531 -16.890625 6.875 -17.515625 C 7.269531 -18.171875 7.796875 -19.070312 8.453125 -20.21875 C 9.109375 -21.363281 9.859375 -22.632812 10.703125 -24.03125 C 11.546875 -25.425781 12.429688 -26.832031 13.359375 -28.25 C 14.285156 -29.664062 15.191406 -30.972656 16.078125 -32.171875 C 16.960938 -33.367188 17.789062 -34.351562 18.5625 -35.125 C 19.34375 -35.894531 19.988281 -36.316406 20.5 -36.390625 C 20.914062 -36.453125 21.226562 -36.351562 21.4375 -36.09375 C 21.65625 -35.832031 21.785156 -35.585938 21.828125 -35.359375 C 21.867188 -35.054688 21.5625 -34.375 20.90625 -33.3125 C 20.25 -32.25 19.375 -30.953125 18.28125 -29.421875 C 17.195312 -27.890625 15.992188 -26.257812 14.671875 -24.53125 C 13.359375 -22.8125 12.0625 -21.160156 10.78125 -19.578125 C 10.03125 -18.453125 9.253906 -17.242188 8.453125 -15.953125 C 7.648438 -14.660156 6.882812 -13.40625 6.15625 -12.1875 C 5.644531 -11.289062 5.160156 -10.414062 4.703125 -9.5625 C 4.253906 -8.71875 3.875 -7.984375 3.5625 -7.359375 C 3.257812 -6.742188 3.085938 -6.335938 3.046875 -6.140625 C 3.003906 -5.941406 3.132812 -6.03125 3.4375 -6.40625 C 5.507812 -8.9375 7.457031 -11.1875 9.28125 -13.15625 C 11.101562 -15.125 12.648438 -16.6875 13.921875 -17.84375 C 15.203125 -19.007812 16.09375 -19.628906 16.59375 -19.703125 C 17 -19.765625 17.3125 -19.613281 17.53125 -19.25 C 17.957031 -19.082031 18.191406 -18.859375 18.234375 -18.578125 C 18.253906 -18.398438 18.101562 -17.9375 17.78125 -17.1875 C 17.46875 -16.4375 17.054688 -15.535156 16.546875 -14.484375 C 16.046875 -13.429688 15.523438 -12.320312 14.984375 -11.15625 C 14.453125 -9.988281 13.976562 -8.875 13.5625 -7.8125 C 13.144531 -6.757812 12.867188 -5.859375 12.734375 -5.109375 C 12.597656 -4.367188 12.660156 -3.882812 12.921875 -3.65625 C 13.160156 -3.476562 13.601562 -3.660156 14.25 -4.203125 C 14.894531 -4.753906 15.628906 -5.515625 16.453125 -6.484375 C 17.285156 -7.453125 18.113281 -8.46875 18.9375 -9.53125 C 19.769531 -10.59375 20.515625 -11.566406 21.171875 -12.453125 C 21.835938 -13.335938 22.289062 -13.945312 22.53125 -14.28125 C 22.75 -14.570312 22.929688 -14.566406 23.078125 -14.265625 C 23.234375 -13.960938 23.285156 -13.550781 23.234375 -13.03125 C 23.179688 -12.507812 22.984375 -12.023438 22.640625 -11.578125 C 22.484375 -11.398438 22.148438 -10.941406 21.640625 -10.203125 C 21.128906 -9.460938 20.507812 -8.59375 19.78125 -7.59375 C 19.0625 -6.59375 18.289062 -5.601562 17.46875 -4.625 C 16.65625 -3.65625 15.867188 -2.832031 15.109375 -2.15625 C 14.347656 -1.476562 13.691406 -1.097656 13.140625 -1.015625 C 12.441406 -0.910156 11.816406 -1.113281 11.265625 -1.625 C 10.710938 -2.132812 10.398438 -2.640625 10.328125 -3.140625 C 10.234375 -3.773438 10.3125 -4.5625 10.5625 -5.5 C 10.820312 -6.4375 11.164062 -7.421875 11.59375 -8.453125 C 12.019531 -9.484375 12.441406 -10.460938 12.859375 -11.390625 C 13.285156 -12.316406 13.613281 -13.078125 13.84375 -13.671875 C 14.082031 -14.273438 14.140625 -14.609375 14.015625 -14.671875 C 13.898438 -14.753906 13.585938 -14.554688 13.078125 -14.078125 C 12.566406 -13.597656 11.925781 -12.957031 11.15625 -12.15625 C 10.382812 -11.351562 9.5625 -10.460938 8.6875 -9.484375 C 7.8125 -8.503906 6.953125 -7.507812 6.109375 -6.5 C 5.265625 -5.5 4.519531 -4.570312 3.875 -3.71875 C 3.238281 -2.875 2.753906 -2.1875 2.421875 -1.65625 C 1.609375 -0.34375 0.992188 0.71875 0.578125 1.53125 C 0.171875 2.351562 -0.1875 2.789062 -0.5 2.84375 Z M -0.5 2.84375 "/></g></g></g><g fill="#e06c4f" fill-opacity="1"><g transform="translate(170.371172, 194.171645)"><g><path d="M 15.46875 -13.25 C 15.71875 -13.582031 15.859375 -13.53125 15.890625 -13.09375 C 15.929688 -12.65625 15.816406 -12.035156 15.546875 -11.234375 C 15.285156 -10.441406 14.804688 -9.625 14.109375 -8.78125 C 12.078125 -6.332031 10.378906 -4.382812 9.015625 -2.9375 C 7.648438 -1.5 6.492188 -0.46875 5.546875 0.15625 C 4.609375 0.789062 3.753906 1.148438 2.984375 1.234375 C 2.203125 1.328125 1.484375 1.039062 0.828125 0.375 C 0.179688 -0.28125 -0.1875 -1.015625 -0.28125 -1.828125 C -0.375 -2.671875 -0.25 -3.664062 0.09375 -4.8125 C 0.4375 -5.957031 0.925781 -7.164062 1.5625 -8.4375 C 2.195312 -9.71875 2.929688 -10.96875 3.765625 -12.1875 C 4.609375 -13.40625 5.472656 -14.519531 6.359375 -15.53125 C 7.242188 -16.550781 8.085938 -17.378906 8.890625 -18.015625 C 9.703125 -18.648438 10.414062 -19.003906 11.03125 -19.078125 C 11.613281 -19.140625 12.175781 -18.988281 12.71875 -18.625 C 13.269531 -18.269531 13.578125 -17.765625 13.640625 -17.109375 C 13.710938 -16.441406 13.4375 -15.628906 12.8125 -14.671875 C 12.1875 -13.722656 11.335938 -12.722656 10.265625 -11.671875 C 9.203125 -10.617188 8.019531 -9.585938 6.71875 -8.578125 C 5.414062 -7.578125 4.109375 -6.695312 2.796875 -5.9375 C 2.335938 -4.851562 2.046875 -3.894531 1.921875 -3.0625 C 1.796875 -2.238281 1.921875 -1.660156 2.296875 -1.328125 C 2.734375 -0.953125 3.332031 -0.945312 4.09375 -1.3125 C 4.851562 -1.675781 5.71875 -2.296875 6.6875 -3.171875 C 7.65625 -4.054688 8.65625 -5.078125 9.6875 -6.234375 C 10.71875 -7.390625 11.734375 -8.585938 12.734375 -9.828125 C 13.742188 -11.066406 14.65625 -12.207031 15.46875 -13.25 Z M 10.703125 -16.09375 C 10.359375 -16.332031 9.835938 -16.148438 9.140625 -15.546875 C 8.441406 -14.953125 7.6875 -14.109375 6.875 -13.015625 C 6.0625 -11.929688 5.28125 -10.75 4.53125 -9.46875 C 5.300781 -10.019531 6.09375 -10.640625 6.90625 -11.328125 C 7.726562 -12.015625 8.472656 -12.679688 9.140625 -13.328125 C 9.816406 -13.984375 10.304688 -14.554688 10.609375 -15.046875 C 10.921875 -15.546875 10.953125 -15.894531 10.703125 -16.09375 Z M 10.703125 -16.09375 "/></g></g></g><g fill="#e06c4f" fill-opacity="1"><g transform="translate(182.549389, 192.32252)"><g><path d="M 18.890625 -13.90625 C 19.234375 -14.226562 19.441406 -14.28125 19.515625 -14.0625 C 19.585938 -13.84375 19.5625 -13.53125 19.4375 -13.125 C 19.3125 -12.726562 19.113281 -12.378906 18.84375 -12.078125 C 18.476562 -11.628906 18.003906 -11.195312 17.421875 -10.78125 C 16.847656 -10.375 16.097656 -10.101562 15.171875 -9.96875 C 13.984375 -9.78125 13.132812 -9.976562 12.625 -10.5625 C 12.125 -11.15625 11.8125 -11.859375 11.6875 -12.671875 C 11.65625 -12.898438 11.632812 -13.113281 11.625 -13.3125 C 11.613281 -13.507812 11.601562 -13.691406 11.59375 -13.859375 C 10.925781 -13.191406 9.953125 -12.09375 8.671875 -10.5625 C 7.390625 -9.039062 6 -7.164062 4.5 -4.9375 C 3 -2.707031 1.550781 -0.210938 0.15625 2.546875 C 0 2.867188 -0.21875 2.960938 -0.5 2.828125 C -0.78125 2.703125 -1.050781 2.441406 -1.3125 2.046875 C -1.570312 1.648438 -1.726562 1.253906 -1.78125 0.859375 C -1.84375 0.441406 -1.710938 -0.222656 -1.390625 -1.140625 C -1.078125 -2.066406 -0.644531 -3.15625 -0.09375 -4.40625 C 0.457031 -5.664062 1.082031 -6.976562 1.78125 -8.34375 C 2.476562 -9.71875 3.164062 -11.046875 3.84375 -12.328125 C 4.53125 -13.617188 5.148438 -14.765625 5.703125 -15.765625 C 6.253906 -16.773438 6.691406 -17.53125 7.015625 -18.03125 C 7.203125 -18.320312 7.476562 -18.4375 7.84375 -18.375 C 8.207031 -18.3125 8.554688 -18.160156 8.890625 -17.921875 C 9.222656 -17.691406 9.445312 -17.445312 9.5625 -17.1875 C 9.675781 -16.925781 9.582031 -16.722656 9.28125 -16.578125 C 9.164062 -16.523438 8.816406 -16.050781 8.234375 -15.15625 C 7.660156 -14.257812 6.9375 -13.046875 6.0625 -11.515625 C 5.1875 -9.984375 4.226562 -8.25 3.1875 -6.3125 C 4.28125 -7.71875 5.398438 -9.132812 6.546875 -10.5625 C 7.691406 -11.988281 8.769531 -13.3125 9.78125 -14.53125 C 10.800781 -15.75 11.644531 -16.769531 12.3125 -17.59375 C 12.988281 -18.425781 13.398438 -18.957031 13.546875 -19.1875 C 13.722656 -19.445312 13.96875 -19.566406 14.28125 -19.546875 C 14.59375 -19.523438 14.90625 -19.410156 15.21875 -19.203125 C 15.53125 -18.992188 15.753906 -18.757812 15.890625 -18.5 C 16.035156 -18.238281 16.019531 -18.019531 15.84375 -17.84375 C 15.613281 -17.59375 15.335938 -17.175781 15.015625 -16.59375 C 14.691406 -16.019531 14.421875 -15.414062 14.203125 -14.78125 C 13.992188 -14.144531 13.921875 -13.601562 13.984375 -13.15625 C 14.046875 -12.78125 14.203125 -12.53125 14.453125 -12.40625 C 14.703125 -12.289062 14.972656 -12.253906 15.265625 -12.296875 C 15.753906 -12.367188 16.335938 -12.53125 17.015625 -12.78125 C 17.691406 -13.03125 18.316406 -13.40625 18.890625 -13.90625 Z M 18.890625 -13.90625 "/></g></g></g><g fill="#e06c4f" fill-opacity="1"><g transform="translate(197.641689, 190.030924)"><g><path d="M 21.234375 -39.40625 C 21.796875 -39.488281 22.222656 -39.347656 22.515625 -38.984375 C 22.804688 -38.617188 22.984375 -38.234375 23.046875 -37.828125 C 23.109375 -37.421875 23.054688 -37.203125 22.890625 -37.171875 C 22.535156 -37.117188 22.078125 -36.828125 21.515625 -36.296875 C 20.960938 -35.765625 20.363281 -35.082031 19.71875 -34.25 C 19.070312 -33.425781 18.429688 -32.554688 17.796875 -31.640625 C 17.171875 -30.734375 16.601562 -29.875 16.09375 -29.0625 C 15.738281 -28.5 15.242188 -27.664062 14.609375 -26.5625 C 13.972656 -25.46875 13.238281 -24.191406 12.40625 -22.734375 C 11.582031 -21.285156 10.71875 -19.757812 9.8125 -18.15625 C 8.914062 -16.550781 8.039062 -14.957031 7.1875 -13.375 C 6.332031 -11.789062 5.535156 -10.300781 4.796875 -8.90625 C 6.429688 -10.851562 8.066406 -12.675781 9.703125 -14.375 C 11.335938 -16.082031 12.863281 -17.488281 14.28125 -18.59375 C 15.695312 -19.695312 16.882812 -20.320312 17.84375 -20.46875 C 18.507812 -20.570312 19.050781 -20.347656 19.46875 -19.796875 C 19.882812 -19.253906 20.128906 -18.734375 20.203125 -18.234375 C 20.316406 -17.484375 20.179688 -16.515625 19.796875 -15.328125 C 19.410156 -14.140625 18.859375 -12.890625 18.140625 -11.578125 C 18.347656 -11.660156 18.5625 -11.753906 18.78125 -11.859375 C 19.007812 -11.960938 19.242188 -12.050781 19.484375 -12.125 C 20.097656 -12.363281 20.71875 -12.519531 21.34375 -12.59375 C 21.96875 -12.675781 22.425781 -12.679688 22.71875 -12.609375 C 23.007812 -12.546875 22.957031 -12.425781 22.5625 -12.25 C 21.582031 -11.789062 20.617188 -11.332031 19.671875 -10.875 C 18.722656 -10.425781 17.816406 -9.957031 16.953125 -9.46875 C 16.160156 -8.195312 15.285156 -6.9375 14.328125 -5.6875 C 13.367188 -4.445312 12.390625 -3.3125 11.390625 -2.28125 C 10.398438 -1.257812 9.441406 -0.425781 8.515625 0.21875 C 7.585938 0.863281 6.75 1.242188 6 1.359375 C 5.445312 1.441406 4.929688 1.25 4.453125 0.78125 C 3.984375 0.320312 3.71875 -0.125 3.65625 -0.5625 C 3.570312 -1.132812 3.820312 -1.796875 4.40625 -2.546875 C 4.988281 -3.304688 5.804688 -4.113281 6.859375 -4.96875 C 7.910156 -5.820312 9.125 -6.679688 10.5 -7.546875 C 11.882812 -8.410156 13.316406 -9.222656 14.796875 -9.984375 C 15.492188 -11.097656 16.097656 -12.175781 16.609375 -13.21875 C 17.128906 -14.257812 17.472656 -15.164062 17.640625 -15.9375 C 17.816406 -16.71875 17.757812 -17.226562 17.46875 -17.46875 C 17.1875 -17.726562 16.703125 -17.664062 16.015625 -17.28125 C 15.335938 -16.894531 14.539062 -16.296875 13.625 -15.484375 C 12.707031 -14.679688 11.769531 -13.773438 10.8125 -12.765625 C 9.851562 -11.753906 8.957031 -10.765625 8.125 -9.796875 C 7.289062 -8.828125 6.601562 -7.988281 6.0625 -7.28125 C 5.132812 -6.101562 4.332031 -5.007812 3.65625 -4 C 2.976562 -3 2.359375 -1.960938 1.796875 -0.890625 C 1.234375 0.171875 0.664062 1.382812 0.09375 2.75 C -0.0078125 3.03125 -0.226562 3.128906 -0.5625 3.046875 C -0.90625 2.960938 -1.242188 2.773438 -1.578125 2.484375 C -1.910156 2.203125 -2.171875 1.859375 -2.359375 1.453125 C -2.546875 1.046875 -2.554688 0.664062 -2.390625 0.3125 C -1.078125 -2.519531 0.351562 -5.457031 1.90625 -8.5 C 3.46875 -11.539062 5.054688 -14.53125 6.671875 -17.46875 C 8.285156 -20.414062 9.863281 -23.191406 11.40625 -25.796875 C 12.957031 -28.410156 14.398438 -30.722656 15.734375 -32.734375 C 17.078125 -34.742188 18.222656 -36.335938 19.171875 -37.515625 C 20.117188 -38.703125 20.804688 -39.332031 21.234375 -39.40625 Z M 6.4375 -1.34375 C 6.632812 -1.09375 7.054688 -1.195312 7.703125 -1.65625 C 8.359375 -2.113281 9.128906 -2.816406 10.015625 -3.765625 C 10.910156 -4.722656 11.800781 -5.785156 12.6875 -6.953125 C 10.613281 -5.609375 8.992188 -4.398438 7.828125 -3.328125 C 6.671875 -2.253906 6.207031 -1.59375 6.4375 -1.34375 Z M 6.4375 -1.34375 "/></g></g></g><g fill="#e06c4f" fill-opacity="1"><g transform="translate(218.779603, 186.821369)"><g><path d="M 19.078125 -17.359375 C 19.484375 -17.628906 19.65625 -17.578125 19.59375 -17.203125 C 19.53125 -16.835938 19.078125 -16.316406 18.234375 -15.640625 C 17.378906 -14.960938 16.414062 -14.410156 15.34375 -13.984375 C 14.269531 -13.554688 13.253906 -13.285156 12.296875 -13.171875 C 12.054688 -13.128906 11.820312 -13.113281 11.59375 -13.125 C 11.363281 -13.144531 11.140625 -13.15625 10.921875 -13.15625 C 10.640625 -12.414062 10.175781 -11.425781 9.53125 -10.1875 C 8.882812 -8.945312 8.128906 -7.617188 7.265625 -6.203125 C 6.398438 -4.785156 5.507812 -3.429688 4.59375 -2.140625 C 3.6875 -0.859375 2.8125 0.191406 1.96875 1.015625 C 1.125 1.835938 0.40625 2.273438 -0.1875 2.328125 C -0.5 2.359375 -0.921875 2.21875 -1.453125 1.90625 C -1.992188 1.601562 -2.304688 1.085938 -2.390625 0.359375 C -2.429688 0.0664062 -2.285156 -0.5 -1.953125 -1.34375 C -1.628906 -2.195312 -1.179688 -3.226562 -0.609375 -4.4375 C -0.0351562 -5.65625 0.617188 -6.953125 1.359375 -8.328125 C 2.097656 -9.703125 2.863281 -11.0625 3.65625 -12.40625 C 4.445312 -13.757812 5.222656 -14.988281 5.984375 -16.09375 C 6.742188 -17.207031 7.441406 -18.117188 8.078125 -18.828125 C 8.710938 -19.535156 9.222656 -19.914062 9.609375 -19.96875 C 10.035156 -20.03125 10.414062 -19.945312 10.75 -19.71875 C 11.082031 -19.488281 11.300781 -19.238281 11.40625 -18.96875 C 11.507812 -18.707031 11.410156 -18.550781 11.109375 -18.5 C 10.910156 -18.46875 10.703125 -18.382812 10.484375 -18.25 C 10.273438 -18.125 10.050781 -17.953125 9.8125 -17.734375 C 10.269531 -17.535156 10.597656 -17.179688 10.796875 -16.671875 C 11.003906 -16.171875 11.125 -15.613281 11.15625 -15 C 11.363281 -15 11.578125 -14.992188 11.796875 -14.984375 C 12.023438 -14.984375 12.253906 -15 12.484375 -15.03125 C 13.097656 -15.125 13.847656 -15.300781 14.734375 -15.5625 C 15.617188 -15.820312 16.460938 -16.117188 17.265625 -16.453125 C 18.078125 -16.785156 18.679688 -17.085938 19.078125 -17.359375 Z M 0.671875 -1.390625 C 0.835938 -1.273438 1.160156 -1.441406 1.640625 -1.890625 C 2.128906 -2.347656 2.675781 -3 3.28125 -3.84375 C 3.882812 -4.695312 4.507812 -5.632812 5.15625 -6.65625 C 5.8125 -7.675781 6.410156 -8.679688 6.953125 -9.671875 C 7.503906 -10.660156 7.941406 -11.535156 8.265625 -12.296875 C 8.597656 -13.054688 8.738281 -13.597656 8.6875 -13.921875 L 8.65625 -14.1875 C 8.351562 -14.457031 8.070312 -14.765625 7.8125 -15.109375 C 7.445312 -14.535156 6.941406 -13.722656 6.296875 -12.671875 C 5.660156 -11.617188 4.984375 -10.472656 4.265625 -9.234375 C 3.554688 -7.992188 2.894531 -6.800781 2.28125 -5.65625 C 1.664062 -4.519531 1.203125 -3.554688 0.890625 -2.765625 C 0.585938 -1.972656 0.515625 -1.515625 0.671875 -1.390625 Z M 0.671875 -1.390625 "/></g></g></g><g fill="#e06c4f" fill-opacity="1"><g transform="translate(231.43625, 184.899599)"><g><path d="M 21.53125 -14.125 C 21.75 -14.425781 21.925781 -14.421875 22.0625 -14.109375 C 22.195312 -13.804688 22.226562 -13.390625 22.15625 -12.859375 C 22.09375 -12.335938 21.890625 -11.851562 21.546875 -11.40625 C 21.410156 -11.269531 21.101562 -10.878906 20.625 -10.234375 C 20.15625 -9.585938 19.566406 -8.789062 18.859375 -7.84375 C 18.148438 -6.90625 17.382812 -5.925781 16.5625 -4.90625 C 15.738281 -3.894531 14.910156 -2.929688 14.078125 -2.015625 C 13.253906 -1.109375 12.492188 -0.359375 11.796875 0.234375 C 11.097656 0.828125 10.535156 1.160156 10.109375 1.234375 C 9.578125 1.304688 9.050781 1.082031 8.53125 0.5625 C 8.007812 0.0507812 7.710938 -0.445312 7.640625 -0.9375 C 7.503906 -1.863281 7.597656 -2.921875 7.921875 -4.109375 C 8.242188 -5.304688 8.75 -6.648438 9.4375 -8.140625 C 8.5 -6.960938 7.523438 -5.78125 6.515625 -4.59375 C 5.503906 -3.414062 4.578125 -2.414062 3.734375 -1.59375 C 2.898438 -0.78125 2.238281 -0.335938 1.75 -0.265625 C 1.25 -0.191406 0.71875 -0.378906 0.15625 -0.828125 C -0.394531 -1.273438 -0.734375 -1.890625 -0.859375 -2.671875 C -0.953125 -3.304688 -0.820312 -4.128906 -0.46875 -5.140625 C -0.113281 -6.160156 0.382812 -7.265625 1.03125 -8.453125 C 1.675781 -9.640625 2.421875 -10.820312 3.265625 -12 C 4.117188 -13.1875 4.976562 -14.28125 5.84375 -15.28125 C 6.71875 -16.289062 7.539062 -17.113281 8.3125 -17.75 C 9.09375 -18.394531 9.765625 -18.757812 10.328125 -18.84375 C 11.191406 -18.976562 12.019531 -18.875 12.8125 -18.53125 C 13.601562 -18.1875 14.164062 -17.785156 14.5 -17.328125 C 14.8125 -17.828125 15.140625 -18.332031 15.484375 -18.84375 C 15.835938 -19.351562 16.191406 -19.738281 16.546875 -20 C 16.765625 -20.175781 17.023438 -20.21875 17.328125 -20.125 C 17.640625 -20.03125 17.929688 -19.859375 18.203125 -19.609375 C 18.484375 -19.367188 18.664062 -19.132812 18.75 -18.90625 C 18.84375 -18.6875 18.765625 -18.546875 18.515625 -18.484375 C 18.265625 -18.410156 17.84375 -17.96875 17.25 -17.15625 C 16.65625 -16.351562 15.988281 -15.347656 15.25 -14.140625 C 14.519531 -12.941406 13.785156 -11.65625 13.046875 -10.28125 C 12.304688 -8.90625 11.644531 -7.578125 11.0625 -6.296875 C 10.476562 -5.023438 10.078125 -3.953125 9.859375 -3.078125 C 9.640625 -2.203125 9.664062 -1.644531 9.9375 -1.40625 C 10.132812 -1.257812 10.519531 -1.425781 11.09375 -1.90625 C 11.675781 -2.382812 12.367188 -3.050781 13.171875 -3.90625 C 13.972656 -4.769531 14.816406 -5.722656 15.703125 -6.765625 C 16.585938 -7.804688 17.429688 -8.832031 18.234375 -9.84375 C 19.046875 -10.851562 19.742188 -11.742188 20.328125 -12.515625 C 20.910156 -13.285156 21.3125 -13.820312 21.53125 -14.125 Z M 1.359375 -2.875 C 1.523438 -2.71875 1.875 -2.851562 2.40625 -3.28125 C 2.945312 -3.707031 3.609375 -4.316406 4.390625 -5.109375 C 5.179688 -5.910156 6.007812 -6.804688 6.875 -7.796875 C 7.75 -8.796875 8.59375 -9.796875 9.40625 -10.796875 C 10.226562 -11.796875 10.945312 -12.695312 11.5625 -13.5 C 12.175781 -14.3125 12.617188 -14.929688 12.890625 -15.359375 C 12.765625 -15.566406 12.476562 -15.820312 12.03125 -16.125 C 11.59375 -16.4375 11.128906 -16.554688 10.640625 -16.484375 C 10.109375 -16.398438 9.488281 -16.039062 8.78125 -15.40625 C 8.082031 -14.78125 7.34375 -13.984375 6.5625 -13.015625 C 5.789062 -12.054688 5.054688 -11.035156 4.359375 -9.953125 C 3.671875 -8.878906 3.0625 -7.835938 2.53125 -6.828125 C 2 -5.828125 1.613281 -4.96875 1.375 -4.25 C 1.144531 -3.53125 1.140625 -3.070312 1.359375 -2.875 Z M 1.359375 -2.875 "/></g></g></g><g fill="#e06c4f" fill-opacity="1"><g transform="translate(249.703576, 182.125911)"><g><path d="M 18.890625 -13.90625 C 19.234375 -14.226562 19.441406 -14.28125 19.515625 -14.0625 C 19.585938 -13.84375 19.5625 -13.53125 19.4375 -13.125 C 19.3125 -12.726562 19.113281 -12.378906 18.84375 -12.078125 C 18.476562 -11.628906 18.003906 -11.195312 17.421875 -10.78125 C 16.847656 -10.375 16.097656 -10.101562 15.171875 -9.96875 C 13.984375 -9.78125 13.132812 -9.976562 12.625 -10.5625 C 12.125 -11.15625 11.8125 -11.859375 11.6875 -12.671875 C 11.65625 -12.898438 11.632812 -13.113281 11.625 -13.3125 C 11.613281 -13.507812 11.601562 -13.691406 11.59375 -13.859375 C 10.925781 -13.191406 9.953125 -12.09375 8.671875 -10.5625 C 7.390625 -9.039062 6 -7.164062 4.5 -4.9375 C 3 -2.707031 1.550781 -0.210938 0.15625 2.546875 C 0 2.867188 -0.21875 2.960938 -0.5 2.828125 C -0.78125 2.703125 -1.050781 2.441406 -1.3125 2.046875 C -1.570312 1.648438 -1.726562 1.253906 -1.78125 0.859375 C -1.84375 0.441406 -1.710938 -0.222656 -1.390625 -1.140625 C -1.078125 -2.066406 -0.644531 -3.15625 -0.09375 -4.40625 C 0.457031 -5.664062 1.082031 -6.976562 1.78125 -8.34375 C 2.476562 -9.71875 3.164062 -11.046875 3.84375 -12.328125 C 4.53125 -13.617188 5.148438 -14.765625 5.703125 -15.765625 C 6.253906 -16.773438 6.691406 -17.53125 7.015625 -18.03125 C 7.203125 -18.320312 7.476562 -18.4375 7.84375 -18.375 C 8.207031 -18.3125 8.554688 -18.160156 8.890625 -17.921875 C 9.222656 -17.691406 9.445312 -17.445312 9.5625 -17.1875 C 9.675781 -16.925781 9.582031 -16.722656 9.28125 -16.578125 C 9.164062 -16.523438 8.816406 -16.050781 8.234375 -15.15625 C 7.660156 -14.257812 6.9375 -13.046875 6.0625 -11.515625 C 5.1875 -9.984375 4.226562 -8.25 3.1875 -6.3125 C 4.28125 -7.71875 5.398438 -9.132812 6.546875 -10.5625 C 7.691406 -11.988281 8.769531 -13.3125 9.78125 -14.53125 C 10.800781 -15.75 11.644531 -16.769531 12.3125 -17.59375 C 12.988281 -18.425781 13.398438 -18.957031 13.546875 -19.1875 C 13.722656 -19.445312 13.96875 -19.566406 14.28125 -19.546875 C 14.59375 -19.523438 14.90625 -19.410156 15.21875 -19.203125 C 15.53125 -18.992188 15.753906 -18.757812 15.890625 -18.5 C 16.035156 -18.238281 16.019531 -18.019531 15.84375 -17.84375 C 15.613281 -17.59375 15.335938 -17.175781 15.015625 -16.59375 C 14.691406 -16.019531 14.421875 -15.414062 14.203125 -14.78125 C 13.992188 -14.144531 13.921875 -13.601562 13.984375 -13.15625 C 14.046875 -12.78125 14.203125 -12.53125 14.453125 -12.40625 C 14.703125 -12.289062 14.972656 -12.253906 15.265625 -12.296875 C 15.753906 -12.367188 16.335938 -12.53125 17.015625 -12.78125 C 17.691406 -13.03125 18.316406 -13.40625 18.890625 -13.90625 Z M 18.890625 -13.90625 "/></g></g></g><g fill="#e06c4f" fill-opacity="1"><g transform="translate(264.795875, 179.834315)"><g><path d="M 32.015625 -40.03125 C 32.210938 -40.289062 32.46875 -40.351562 32.78125 -40.21875 C 33.101562 -40.09375 33.390625 -39.878906 33.640625 -39.578125 C 33.890625 -39.285156 34.046875 -38.988281 34.109375 -38.6875 C 34.171875 -38.394531 34.054688 -38.226562 33.765625 -38.1875 C 33.535156 -38.144531 33.140625 -37.71875 32.578125 -36.90625 C 32.015625 -36.101562 31.3125 -35 30.46875 -33.59375 C 29.632812 -32.195312 28.707031 -30.597656 27.6875 -28.796875 C 26.664062 -26.992188 25.601562 -25.070312 24.5 -23.03125 C 23.40625 -21 22.3125 -18.9375 21.21875 -16.84375 C 19.945312 -14.488281 18.6875 -12.125 17.4375 -9.75 C 16.195312 -7.375 15.039062 -5.113281 13.96875 -2.96875 C 12.894531 -0.820312 11.960938 1.125 11.171875 2.875 C 10.390625 4.632812 9.820312 6.101562 9.46875 7.28125 C 9.125 8.46875 9.050781 9.265625 9.25 9.671875 C 9.320312 9.804688 9.175781 9.890625 8.8125 9.921875 C 8.457031 9.953125 8.070312 9.863281 7.65625 9.65625 C 7.238281 9.457031 6.992188 9.125 6.921875 8.65625 C 6.828125 8.050781 7.359375 6.390625 8.515625 3.671875 C 9.679688 0.953125 11.4375 -2.679688 13.78125 -7.234375 C 16.132812 -11.796875 19.015625 -17.101562 22.421875 -23.15625 C 19.171875 -19.019531 16.378906 -15.488281 14.046875 -12.5625 C 11.710938 -9.644531 9.757812 -7.269531 8.1875 -5.4375 C 6.613281 -3.613281 5.332031 -2.257812 4.34375 -1.375 C 3.363281 -0.5 2.585938 -0.0195312 2.015625 0.0625 C 1.515625 0.132812 0.984375 -0.0507812 0.421875 -0.5 C -0.128906 -0.957031 -0.460938 -1.578125 -0.578125 -2.359375 C -0.679688 -3.003906 -0.554688 -3.820312 -0.203125 -4.8125 C 0.148438 -5.8125 0.648438 -6.90625 1.296875 -8.09375 C 1.941406 -9.28125 2.6875 -10.460938 3.53125 -11.640625 C 4.382812 -12.828125 5.25 -13.914062 6.125 -14.90625 C 7 -15.894531 7.820312 -16.707031 8.59375 -17.34375 C 9.375 -17.976562 10.039062 -18.335938 10.59375 -18.421875 C 11.519531 -18.566406 12.296875 -18.363281 12.921875 -17.8125 C 13.554688 -17.269531 13.992188 -16.726562 14.234375 -16.1875 C 15.546875 -17.832031 16.960938 -19.644531 18.484375 -21.625 C 20.015625 -23.613281 21.671875 -25.773438 23.453125 -28.109375 C 24.765625 -29.867188 26.125 -31.765625 27.53125 -33.796875 C 28.945312 -35.835938 30.441406 -37.914062 32.015625 -40.03125 Z M 1.734375 -2.53125 C 2.023438 -2.257812 3.050781 -3.046875 4.8125 -4.890625 C 6.582031 -6.742188 9.25 -9.910156 12.8125 -14.390625 C 12.582031 -14.921875 12.316406 -15.34375 12.015625 -15.65625 C 11.710938 -15.976562 11.328125 -16.101562 10.859375 -16.03125 C 10.335938 -15.957031 9.734375 -15.597656 9.046875 -14.953125 C 8.367188 -14.304688 7.664062 -13.5 6.9375 -12.53125 C 6.207031 -11.5625 5.5 -10.523438 4.8125 -9.421875 C 4.132812 -8.328125 3.535156 -7.285156 3.015625 -6.296875 C 2.503906 -5.316406 2.128906 -4.484375 1.890625 -3.796875 C 1.660156 -3.117188 1.609375 -2.695312 1.734375 -2.53125 Z M 1.734375 -2.53125 "/></g></g></g><g fill="#1c5d57" fill-opacity="1"><g transform="translate(140.126187, 234.44084)"><g><path d="M 5.671875 0.90625 L 3.703125 -0.78125 L 1.75 1.5 L 0.5 0.421875 L 5.375 -5.265625 L 8.671875 -2.4375 L 7.6875 -1.296875 L 5.640625 -3.046875 L 4.671875 -1.921875 L 6.640625 -0.234375 Z M 5.671875 0.90625 "/></g></g></g><g fill="#1c5d57" fill-opacity="1"><g transform="translate(145.745222, 239.22047)"><g><path d="M 7.4375 0.421875 C 7.644531 0.0976562 7.753906 -0.257812 7.765625 -0.65625 C 7.785156 -1.050781 7.707031 -1.425781 7.53125 -1.78125 C 7.363281 -2.144531 7.117188 -2.429688 6.796875 -2.640625 C 6.472656 -2.847656 6.117188 -2.957031 5.734375 -2.96875 C 5.347656 -2.988281 4.972656 -2.914062 4.609375 -2.75 C 4.253906 -2.582031 3.972656 -2.335938 3.765625 -2.015625 C 3.554688 -1.703125 3.441406 -1.347656 3.421875 -0.953125 C 3.410156 -0.554688 3.484375 -0.179688 3.640625 0.171875 C 3.804688 0.535156 4.050781 0.820312 4.375 1.03125 C 4.695312 1.238281 5.054688 1.347656 5.453125 1.359375 C 5.847656 1.378906 6.222656 1.304688 6.578125 1.140625 C 6.941406 0.972656 7.226562 0.734375 7.4375 0.421875 Z M 8.796875 1.3125 C 8.515625 1.738281 8.160156 2.09375 7.734375 2.375 C 7.316406 2.65625 6.859375 2.84375 6.359375 2.9375 C 5.867188 3.039062 5.375 3.050781 4.875 2.96875 C 4.375 2.894531 3.90625 2.710938 3.46875 2.421875 C 3.039062 2.140625 2.6875 1.785156 2.40625 1.359375 C 2.132812 0.929688 1.945312 0.472656 1.84375 -0.015625 C 1.75 -0.515625 1.742188 -1.015625 1.828125 -1.515625 C 1.910156 -2.015625 2.09375 -2.476562 2.375 -2.90625 C 2.664062 -3.332031 3.019531 -3.6875 3.4375 -3.96875 C 3.863281 -4.25 4.320312 -4.4375 4.8125 -4.53125 C 5.300781 -4.632812 5.796875 -4.644531 6.296875 -4.5625 C 6.804688 -4.476562 7.273438 -4.296875 7.703125 -4.015625 C 8.140625 -3.722656 8.492188 -3.363281 8.765625 -2.9375 C 9.035156 -2.519531 9.222656 -2.0625 9.328125 -1.5625 C 9.429688 -1.070312 9.441406 -0.578125 9.359375 -0.078125 C 9.273438 0.421875 9.085938 0.882812 8.796875 1.3125 Z M 8.796875 1.3125 "/></g></g></g><g fill="#1c5d57" fill-opacity="1"><g transform="translate(154.459565, 244.723034)"><g><path d="M 3.25 -1.390625 L 2.078125 1.015625 L 0.59375 0.28125 L 3.859375 -6.453125 L 4.984375 -5.90625 L 5.34375 -5.71875 L 6.390625 -5.21875 C 6.742188 -5.039062 7.03125 -4.785156 7.25 -4.453125 C 7.476562 -4.117188 7.609375 -3.742188 7.640625 -3.328125 C 7.679688 -2.910156 7.597656 -2.484375 7.390625 -2.046875 C 7.210938 -1.671875 6.984375 -1.375 6.703125 -1.15625 C 6.421875 -0.9375 6.117188 -0.789062 5.796875 -0.71875 C 5.472656 -0.644531 5.15625 -0.640625 4.84375 -0.703125 L 5.5625 2.703125 L 3.703125 1.796875 L 3.265625 -1.390625 Z M 5.5625 -4.171875 L 4.78125 -4.546875 L 3.8125 -2.546875 L 4.59375 -2.171875 C 4.8125 -2.066406 5.054688 -2.054688 5.328125 -2.140625 C 5.609375 -2.222656 5.828125 -2.421875 5.984375 -2.734375 C 6.128906 -3.046875 6.148438 -3.335938 6.046875 -3.609375 C 5.941406 -3.878906 5.78125 -4.066406 5.5625 -4.171875 Z M 5.5625 -4.171875 "/></g></g></g><g fill="#1c5d57" fill-opacity="1"><g transform="translate(161.502632, 247.98124)"><g/></g></g><g fill="#1c5d57" fill-opacity="1"><g transform="translate(165.725998, 249.710201)"><g><path d="M 9.671875 2.453125 L 7.921875 2 L 8.34375 -3.203125 L 5.65625 1.4375 L 4.09375 1.03125 L 3.9375 -4.328125 L 1.8125 0.453125 L 0.0625 0.015625 L 3.296875 -6.875 L 5.203125 -6.390625 L 5.421875 -0.9375 L 8.21875 -5.640625 L 10.109375 -5.15625 Z M 9.671875 2.453125 "/></g></g></g><g fill="#1c5d57" fill-opacity="1"><g transform="translate(177.388374, 252.440155)"><g><path d="M 6.734375 -3.171875 C 6.765625 -3.554688 6.691406 -3.921875 6.515625 -4.265625 C 6.347656 -4.617188 6.109375 -4.914062 5.796875 -5.15625 C 5.484375 -5.394531 5.132812 -5.53125 4.75 -5.5625 C 4.363281 -5.59375 3.992188 -5.519531 3.640625 -5.34375 C 3.285156 -5.164062 2.988281 -4.921875 2.75 -4.609375 C 2.507812 -4.296875 2.375 -3.945312 2.34375 -3.5625 C 2.3125 -3.175781 2.382812 -2.804688 2.5625 -2.453125 C 2.738281 -2.097656 2.984375 -1.800781 3.296875 -1.5625 C 3.617188 -1.332031 3.972656 -1.203125 4.359375 -1.171875 C 4.742188 -1.140625 5.109375 -1.207031 5.453125 -1.375 C 5.804688 -1.550781 6.097656 -1.796875 6.328125 -2.109375 C 6.566406 -2.429688 6.703125 -2.785156 6.734375 -3.171875 Z M 8.375 -3 C 8.332031 -2.488281 8.1875 -2.015625 7.9375 -1.578125 C 7.695312 -1.140625 7.382812 -0.753906 7 -0.421875 C 6.613281 -0.0976562 6.179688 0.140625 5.703125 0.296875 C 5.222656 0.460938 4.722656 0.523438 4.203125 0.484375 C 3.691406 0.441406 3.210938 0.296875 2.765625 0.046875 C 2.316406 -0.191406 1.929688 -0.503906 1.609375 -0.890625 C 1.296875 -1.285156 1.054688 -1.722656 0.890625 -2.203125 C 0.734375 -2.679688 0.675781 -3.175781 0.71875 -3.6875 C 0.769531 -4.207031 0.914062 -4.6875 1.15625 -5.125 C 1.394531 -5.570312 1.703125 -5.953125 2.078125 -6.265625 C 2.460938 -6.585938 2.898438 -6.832031 3.390625 -7 C 3.878906 -7.164062 4.378906 -7.226562 4.890625 -7.1875 C 5.410156 -7.144531 5.890625 -7 6.328125 -6.75 C 6.765625 -6.5 7.144531 -6.179688 7.46875 -5.796875 C 7.789062 -5.421875 8.035156 -4.988281 8.203125 -4.5 C 8.367188 -4.019531 8.425781 -3.519531 8.375 -3 Z M 8.375 -3 "/></g></g></g><g fill="#1c5d57" fill-opacity="1"><g transform="translate(187.668319, 253.152693)"><g><path d="M 3.59375 -6.140625 L 3.84375 -0.15625 L 2.1875 -0.09375 L 1.9375 -6.078125 L -0.1875 -5.984375 L -0.25 -7.484375 L 5.65625 -7.734375 L 5.71875 -6.234375 Z M 3.59375 -6.140625 "/></g></g></g><g fill="#1c5d57" fill-opacity="1"><g transform="translate(195.496858, 252.755982)"><g><path d="M 3.515625 -8.15625 L 5.25 -8.4375 L 6.453125 -1.046875 L 4.71875 -0.765625 L 4.234375 -3.734375 L 1.796875 -3.34375 L 2.28125 -0.375 L 0.640625 -0.109375 L -0.5625 -7.5 L 1.078125 -7.765625 L 1.5625 -4.8125 L 4 -5.203125 Z M 3.515625 -8.15625 "/></g></g></g><g fill="#1c5d57" fill-opacity="1"><g transform="translate(204.34536, 251.162933)"><g><path d="M 4.40625 -2.8125 L 4.8125 -1.375 L 0.625 -0.1875 L -1.4375 -7.390625 L 2.75 -8.578125 L 3.171875 -7.125 L 0.578125 -6.390625 L 0.984375 -4.96875 L 3.46875 -5.671875 L 3.875 -4.234375 L 1.390625 -3.53125 L 1.8125 -2.078125 Z M 4.40625 -2.8125 "/></g></g></g><g fill="#1c5d57" fill-opacity="1"><g transform="translate(211.461136, 249.03649)"><g><path d="M 1.125 -3.34375 L 2.140625 -0.875 L 0.609375 -0.25 L -2.21875 -7.171875 L -1.0625 -7.640625 L -0.6875 -7.796875 L 0.390625 -8.234375 C 0.753906 -8.378906 1.132812 -8.425781 1.53125 -8.375 C 1.9375 -8.320312 2.304688 -8.164062 2.640625 -7.90625 C 2.972656 -7.65625 3.226562 -7.3125 3.40625 -6.875 C 3.5625 -6.488281 3.628906 -6.113281 3.609375 -5.75 C 3.597656 -5.394531 3.507812 -5.070312 3.34375 -4.78125 C 3.175781 -4.5 2.960938 -4.265625 2.703125 -4.078125 L 5.734375 -2.34375 L 3.796875 -1.546875 L 1.140625 -3.34375 Z M 0.609375 -6.9375 L -0.203125 -6.609375 L 0.640625 -4.546875 L 1.453125 -4.875 C 1.671875 -4.96875 1.84375 -5.140625 1.96875 -5.390625 C 2.09375 -5.648438 2.085938 -5.945312 1.953125 -6.28125 C 1.828125 -6.59375 1.625 -6.800781 1.34375 -6.90625 C 1.070312 -7.019531 0.828125 -7.03125 0.609375 -6.9375 Z M 0.609375 -6.9375 "/></g></g></g><g fill="#1c5d57" fill-opacity="1"><g transform="translate(218.720783, 245.9919)"><g><path d="M 0.53125 -8.859375 L 2.0625 -9.703125 L 5.703125 -3.171875 L 4.171875 -2.328125 L 2.71875 -4.953125 L 0.5625 -3.75 L 2.015625 -1.125 L 0.578125 -0.3125 L -3.0625 -6.84375 L -1.625 -7.65625 L -0.171875 -5.0625 L 1.984375 -6.265625 Z M 0.53125 -8.859375 "/></g></g></g><g fill="#1c5d57" fill-opacity="1"><g transform="translate(226.599242, 241.507911)"><g><path d="M 2.875 -6.875 C 2.644531 -7.175781 2.347656 -7.394531 1.984375 -7.53125 C 1.617188 -7.675781 1.238281 -7.734375 0.84375 -7.703125 C 0.457031 -7.671875 0.109375 -7.535156 -0.203125 -7.296875 C -0.503906 -7.066406 -0.722656 -6.765625 -0.859375 -6.390625 C -1.003906 -6.023438 -1.0625 -5.644531 -1.03125 -5.25 C -1 -4.863281 -0.867188 -4.519531 -0.640625 -4.21875 C -0.398438 -3.90625 -0.0976562 -3.675781 0.265625 -3.53125 C 0.628906 -3.394531 1.003906 -3.34375 1.390625 -3.375 C 1.785156 -3.414062 2.132812 -3.550781 2.4375 -3.78125 C 2.75 -4.019531 2.972656 -4.320312 3.109375 -4.6875 C 3.253906 -5.050781 3.3125 -5.425781 3.28125 -5.8125 C 3.25 -6.207031 3.113281 -6.5625 2.875 -6.875 Z M 4.203125 -7.84375 C 4.515625 -7.4375 4.726562 -6.988281 4.84375 -6.5 C 4.957031 -6.007812 4.976562 -5.515625 4.90625 -5.015625 C 4.84375 -4.515625 4.6875 -4.039062 4.4375 -3.59375 C 4.1875 -3.144531 3.851562 -2.765625 3.4375 -2.453125 C 3.03125 -2.148438 2.578125 -1.941406 2.078125 -1.828125 C 1.585938 -1.710938 1.09375 -1.691406 0.59375 -1.765625 C 0.09375 -1.835938 -0.375 -1.992188 -0.8125 -2.234375 C -1.25 -2.484375 -1.625 -2.8125 -1.9375 -3.21875 C -2.25 -3.632812 -2.460938 -4.085938 -2.578125 -4.578125 C -2.703125 -5.078125 -2.726562 -5.570312 -2.65625 -6.0625 C -2.59375 -6.5625 -2.4375 -7.035156 -2.1875 -7.484375 C -1.9375 -7.929688 -1.609375 -8.304688 -1.203125 -8.609375 C -0.785156 -8.921875 -0.332031 -9.132812 0.15625 -9.25 C 0.65625 -9.363281 1.15625 -9.382812 1.65625 -9.3125 C 2.15625 -9.25 2.625 -9.09375 3.0625 -8.84375 C 3.507812 -8.59375 3.890625 -8.257812 4.203125 -7.84375 Z M 4.203125 -7.84375 "/></g></g></g><g fill="#1c5d57" fill-opacity="1"><g transform="translate(234.791178, 235.149867)"><g><path d="M 1.84375 -7.21875 C 1.5625 -7.488281 1.226562 -7.664062 0.84375 -7.75 C 0.46875 -7.832031 0.0859375 -7.828125 -0.296875 -7.734375 C -0.679688 -7.648438 -1.007812 -7.46875 -1.28125 -7.1875 C -1.550781 -6.914062 -1.726562 -6.585938 -1.8125 -6.203125 C -1.894531 -5.816406 -1.890625 -5.429688 -1.796875 -5.046875 C -1.710938 -4.671875 -1.53125 -4.347656 -1.25 -4.078125 C -0.976562 -3.804688 -0.648438 -3.625 -0.265625 -3.53125 C 0.117188 -3.445312 0.5 -3.453125 0.875 -3.546875 C 1.257812 -3.640625 1.585938 -3.820312 1.859375 -4.09375 C 2.128906 -4.375 2.304688 -4.703125 2.390625 -5.078125 C 2.484375 -5.460938 2.484375 -5.847656 2.390625 -6.234375 C 2.296875 -6.617188 2.113281 -6.945312 1.84375 -7.21875 Z M 2.984375 -8.375 C 3.347656 -8.019531 3.625 -7.609375 3.8125 -7.140625 C 4.007812 -6.671875 4.109375 -6.179688 4.109375 -5.671875 C 4.117188 -5.171875 4.035156 -4.679688 3.859375 -4.203125 C 3.679688 -3.734375 3.410156 -3.3125 3.046875 -2.9375 C 2.691406 -2.570312 2.273438 -2.289062 1.796875 -2.09375 C 1.316406 -1.90625 0.828125 -1.8125 0.328125 -1.8125 C -0.171875 -1.820312 -0.65625 -1.914062 -1.125 -2.09375 C -1.601562 -2.269531 -2.023438 -2.535156 -2.390625 -2.890625 C -2.753906 -3.265625 -3.03125 -3.6875 -3.21875 -4.15625 C -3.414062 -4.625 -3.515625 -5.109375 -3.515625 -5.609375 C -3.523438 -6.109375 -3.4375 -6.597656 -3.25 -7.078125 C -3.070312 -7.554688 -2.804688 -7.976562 -2.453125 -8.34375 C -2.085938 -8.71875 -1.664062 -9 -1.1875 -9.1875 C -0.71875 -9.375 -0.234375 -9.46875 0.265625 -9.46875 C 0.765625 -9.46875 1.25 -9.378906 1.71875 -9.203125 C 2.195312 -9.023438 2.617188 -8.75 2.984375 -8.375 Z M 2.984375 -8.375 "/></g></g></g><g fill="#1c5d57" fill-opacity="1"><g transform="translate(241.900434, 227.655104)"><g><path d="M 0.140625 -2.734375 L 0.4375 -3.140625 C 0.695312 -3.484375 0.84375 -3.84375 0.875 -4.21875 C 0.90625 -4.59375 0.835938 -4.953125 0.671875 -5.296875 C 0.515625 -5.640625 0.269531 -5.9375 -0.0625 -6.1875 C -0.394531 -6.4375 -0.75 -6.585938 -1.125 -6.640625 C -1.507812 -6.691406 -1.875 -6.644531 -2.21875 -6.5 C -2.5625 -6.363281 -2.863281 -6.125 -3.125 -5.78125 L -3.421875 -5.375 Z M -5.609375 -5 L -4.28125 -6.78125 C -3.96875 -7.207031 -3.597656 -7.539062 -3.171875 -7.78125 C -2.753906 -8.03125 -2.304688 -8.1875 -1.828125 -8.25 C -1.359375 -8.320312 -0.882812 -8.296875 -0.40625 -8.171875 C 0.0625 -8.054688 0.507812 -7.84375 0.9375 -7.53125 C 1.351562 -7.21875 1.6875 -6.847656 1.9375 -6.421875 C 2.195312 -5.992188 2.359375 -5.546875 2.421875 -5.078125 C 2.492188 -4.609375 2.472656 -4.132812 2.359375 -3.65625 C 2.242188 -3.1875 2.03125 -2.738281 1.71875 -2.3125 L 0.390625 -0.53125 Z M -5.609375 -5 "/></g></g></g><g transform="matrix(1, 0, 0, 1, 135, 103)"><g clip-path="url(#bb8f41422e)"><g fill="#1c5d57" fill-opacity="1"><g transform="translate(10.353672, 36.026819)"><g/></g></g><g fill="#1c5d57" fill-opacity="1"><g transform="translate(13.430041, 33.086866)"><g><path d="M 2.34375 -5.65625 L -0.234375 -7.40625 L 0.65625 -4.421875 Z M 6.734375 -4.921875 L 5.140625 -3.765625 L 3.6875 -4.75 L 1.140625 -2.890625 L 1.625 -1.1875 L 0.046875 -0.03125 L -2.125 -8.703125 L -0.875 -9.625 Z M 6.734375 -4.921875 "/></g></g></g><g fill="#1c5d57" fill-opacity="1"><g transform="translate(21.18397, 27.587091)"><g><path d="M 0.84375 -3.828125 L 2.25 -1.21875 L 0.640625 -0.34375 L -3.28125 -7.640625 L -2.0625 -8.296875 L -1.671875 -8.515625 L -0.53125 -9.109375 C -0.132812 -9.328125 0.285156 -9.425781 0.734375 -9.40625 C 1.179688 -9.394531 1.597656 -9.269531 1.984375 -9.03125 C 2.378906 -8.789062 2.703125 -8.4375 2.953125 -7.96875 C 3.210938 -7.476562 3.332031 -7.003906 3.3125 -6.546875 C 3.300781 -6.085938 3.175781 -5.671875 2.9375 -5.296875 C 2.695312 -4.929688 2.378906 -4.640625 1.984375 -4.421875 Z M -0.125 -7.703125 L -0.984375 -7.25 L 0.171875 -5.09375 L 1.03125 -5.546875 C 1.269531 -5.671875 1.441406 -5.878906 1.546875 -6.171875 C 1.648438 -6.472656 1.609375 -6.796875 1.421875 -7.140625 C 1.234375 -7.484375 0.988281 -7.691406 0.6875 -7.765625 C 0.382812 -7.847656 0.113281 -7.828125 -0.125 -7.703125 Z M -0.125 -7.703125 "/></g></g></g><g fill="#1c5d57" fill-opacity="1"><g transform="translate(28.014606, 24.000095)"><g><path d="M 1.328125 -3.6875 L 2.390625 -0.921875 L 0.6875 -0.265625 L -2.296875 -7.984375 L -1.015625 -8.484375 L -0.59375 -8.640625 L 0.609375 -9.109375 C 1.023438 -9.265625 1.453125 -9.304688 1.890625 -9.234375 C 2.335938 -9.171875 2.738281 -8.992188 3.09375 -8.703125 C 3.457031 -8.421875 3.734375 -8.035156 3.921875 -7.546875 C 4.117188 -7.023438 4.179688 -6.535156 4.109375 -6.078125 C 4.035156 -5.628906 3.859375 -5.234375 3.578125 -4.890625 C 3.296875 -4.554688 2.945312 -4.3125 2.53125 -4.15625 Z M 0.828125 -7.65625 L -0.078125 -7.3125 L 0.796875 -5.03125 L 1.703125 -5.375 C 1.953125 -5.476562 2.144531 -5.664062 2.28125 -5.9375 C 2.425781 -6.21875 2.425781 -6.546875 2.28125 -6.921875 C 2.144531 -7.273438 1.929688 -7.507812 1.640625 -7.625 C 1.347656 -7.75 1.078125 -7.757812 0.828125 -7.65625 Z M 0.828125 -7.65625 "/></g></g></g><g fill="#1c5d57" fill-opacity="1"><g transform="translate(35.257184, 21.300081)"><g><path d="M 0.71875 -0.1875 L -1.3125 -8.21875 L 0.453125 -8.65625 L 2.078125 -2.234375 L 4.953125 -2.96875 L 5.359375 -1.359375 Z M 0.71875 -0.1875 "/></g></g></g><g fill="#1c5d57" fill-opacity="1"><g transform="translate(42.280328, 19.647348)"><g><path d="M 2.53125 -0.390625 L 0.71875 -0.109375 L -0.546875 -8.296875 L 1.265625 -8.578125 Z M 2.53125 -0.390625 "/></g></g></g><g fill="#1c5d57" fill-opacity="1"><g transform="translate(46.767951, 18.942753)"><g><path d="M 5.421875 -1.96875 L 5.515625 -0.3125 L 0.734375 -0.046875 L 0.28125 -8.3125 L 5.0625 -8.578125 L 5.140625 -6.921875 L 2.1875 -6.75 L 2.28125 -5.125 L 5.109375 -5.28125 L 5.203125 -3.625 L 2.375 -3.46875 L 2.46875 -1.796875 Z M 5.421875 -1.96875 "/></g></g></g><g fill="#1c5d57" fill-opacity="1"><g transform="translate(54.160932, 18.557075)"><g><path d="M 2.65625 -1.5 L 3.1875 -1.453125 C 3.664062 -1.421875 4.085938 -1.5 4.453125 -1.6875 C 4.816406 -1.882812 5.113281 -2.160156 5.34375 -2.515625 C 5.582031 -2.867188 5.71875 -3.269531 5.75 -3.71875 C 5.78125 -4.1875 5.707031 -4.613281 5.53125 -5 C 5.363281 -5.382812 5.113281 -5.695312 4.78125 -5.9375 C 4.445312 -6.175781 4.039062 -6.3125 3.5625 -6.34375 L 3.03125 -6.390625 Z M 1.359375 -8.1875 L 3.796875 -8.015625 C 4.390625 -7.960938 4.925781 -7.816406 5.40625 -7.578125 C 5.882812 -7.335938 6.296875 -7.015625 6.640625 -6.609375 C 6.992188 -6.210938 7.253906 -5.753906 7.421875 -5.234375 C 7.585938 -4.710938 7.648438 -4.160156 7.609375 -3.578125 C 7.566406 -2.992188 7.421875 -2.457031 7.171875 -1.96875 C 6.921875 -1.488281 6.597656 -1.078125 6.203125 -0.734375 C 5.804688 -0.390625 5.347656 -0.128906 4.828125 0.046875 C 4.316406 0.222656 3.765625 0.285156 3.171875 0.234375 L 0.734375 0.0625 Z M 1.359375 -8.1875 "/></g></g></g><g fill="#1c5d57" fill-opacity="1"><g transform="translate(63.071264, 19.423681)"><g/></g></g><g fill="#1c5d57" fill-opacity="1"><g transform="translate(67.270266, 20.114406)"><g><path d="M 5.9375 -1.515625 L 5.78125 -4.640625 L 3.921875 -2.125 Z M 7.984375 2.421875 L 6.09375 1.84375 L 6.015625 0.078125 L 3 -0.828125 L 1.921875 0.578125 L 0.0625 0.015625 L 5.6875 -6.921875 L 7.15625 -6.484375 Z M 7.984375 2.421875 "/></g></g></g><g fill="#1c5d57" fill-opacity="1"><g transform="translate(76.380104, 23.09902)"><g><path d="M 2.359375 1.015625 L 0.671875 0.296875 L 3.953125 -7.296875 L 5.640625 -6.578125 Z M 2.359375 1.015625 "/></g></g></g></g></g></svg>